<svg version="1.1" id="Layer_1" xmlns="http://www.w3.org/2000/svg" xmlns:xlink="http://www.w3.org/1999/xlink" x="0px" y="0px"
	 width="100%" viewBox="0 0 123 150" enable-background="new 0 0 123 150" xml:space="preserve">
<path fill="#87032C" opacity="1.000000" stroke="none" 
	d="
M121.000000,151.000000 
	C81.108315,151.000000 41.216625,151.000000 1.000000,151.000000 
	C1.000000,137.314148 1.000000,123.625732 1.430812,109.468658 
	C4.399780,109.001457 6.937936,109.002914 9.507570,109.471176 
	C9.539050,122.615349 9.539050,135.292740 9.539050,148.156601 
	C22.082260,148.156601 33.670818,148.156601 45.583981,148.182648 
	C46.570808,147.458466 47.233032,146.708221 48.222809,145.978058 
	C48.986744,146.002380 49.423126,146.006622 50.074234,146.355774 
	C51.362396,147.191833 53.123535,148.332733 53.384651,148.056366 
	C54.288696,147.099518 55.119984,145.668869 55.175209,144.384018 
	C55.438339,138.262527 55.436508,132.129639 55.843834,125.837570 
	C56.651787,120.412910 59.870415,119.187592 64.511749,119.980621 
	C65.314598,120.117790 66.160927,120.000397 67.196953,120.229233 
	C67.986778,120.612434 68.566826,120.766998 69.397430,121.097549 
	C70.707397,122.220306 71.766808,123.167068 72.911919,124.438881 
	C74.719437,125.625389 76.441254,126.486847 78.488098,127.467438 
	C79.498672,127.576942 80.184219,127.567322 81.149307,127.643738 
	C81.369209,127.039162 81.309570,126.348534 81.081726,125.391426 
	C79.881500,124.105339 78.849464,123.085739 77.856224,121.747101 
	C77.773117,121.017166 77.651222,120.606270 77.823143,120.002396 
	C77.693062,118.854416 77.269165,117.899406 76.708122,116.590370 
	C76.553177,115.485718 76.535378,114.735085 77.011780,113.988235 
	C81.725128,113.992020 85.944290,113.992020 88.751617,113.992020 
	C89.970100,116.364784 90.618668,117.627754 91.695885,118.958122 
	C94.757431,119.038101 97.390320,119.050674 100.185982,119.254410 
	C100.901848,119.079971 101.454941,118.714371 102.266037,118.239944 
	C102.707161,118.094955 102.890289,118.058777 103.424232,118.016037 
	C105.203514,116.676781 106.631973,115.344078 108.518097,114.008057 
	C112.929428,114.004204 116.883102,114.003670 120.909653,114.466553 
	C120.988358,126.953316 120.994179,138.976654 121.000000,151.000000 
z"/>
<path fill="#A00C3A" opacity="1.000000" stroke="none" 
	d="
M1.000000,20.000000 
	C1.000000,13.686665 1.000000,7.373328 1.000000,1.000000 
	C40.687542,1.000000 80.375114,1.000000 120.539635,1.445032 
	C120.960983,4.262178 120.905388,6.634292 120.390770,9.002722 
	C98.463928,9.000793 76.996109,9.002547 55.382126,8.594736 
	C54.763847,4.877966 53.745403,2.735845 49.959206,6.070152 
	C49.481194,13.561338 49.257908,20.834433 49.216312,28.108566 
	C49.212898,28.705616 50.445641,29.309736 51.071236,29.952597 
	C51.038467,29.994623 51.068779,29.892452 51.130470,30.150471 
	C51.121136,31.245657 51.050106,32.082829 50.792305,33.293587 
	C50.338177,38.779827 50.070827,43.892471 49.491722,49.005249 
	C48.763416,49.003883 48.346867,49.002388 47.903763,48.540016 
	C47.358257,43.997025 46.839306,39.914906 46.244259,35.819237 
	C46.168159,35.805687 46.205513,35.655674 46.215351,35.374168 
	C45.842026,34.734131 45.458866,34.375595 44.953300,33.669815 
	C45.356087,32.261074 45.881283,31.199574 46.747162,29.965260 
	C47.290382,24.533422 47.641705,19.272198 47.563988,14.017321 
	C47.549278,13.022906 45.830688,12.053691 44.580162,11.092451 
	C43.628548,11.179977 42.995075,11.247901 42.051311,11.213647 
	C41.108486,11.586022 40.475948,12.060576 39.482784,12.666537 
	C36.407040,13.482861 33.691925,14.167775 30.821684,14.649669 
	C30.060432,14.820354 29.454308,15.194063 28.459225,15.721405 
	C25.882540,16.094158 23.694813,16.313278 21.106234,16.365463 
	C18.752186,16.645395 16.798988,17.092262 14.439203,17.611553 
	C12.510440,18.460217 10.988265,19.236456 9.049981,20.013359 
	C6.089249,20.009350 3.544624,20.004675 1.000000,20.000000 
z"/>
<path fill="#950230" opacity="1.000000" stroke="none" 
	d="
M1.000000,20.468658 
	C3.544624,20.004675 6.089249,20.009350 9.086305,20.479475 
	C9.518014,36.632011 9.497291,52.319099 9.059803,68.005913 
	C6.095358,68.003754 3.547679,68.001877 1.000000,68.000000 
	C1.000000,52.312439 1.000000,36.624878 1.000000,20.468658 
z"/>
<path fill="#8E022D" opacity="1.000000" stroke="none" 
	d="
M1.000000,68.468658 
	C3.547679,68.001877 6.095358,68.003754 9.090195,68.472694 
	C9.516932,82.294632 9.496511,95.649506 9.476091,109.004379 
	C6.937936,109.002914 4.399780,109.001457 1.430812,109.000000 
	C1.000000,95.645775 1.000000,82.291542 1.000000,68.468658 
z"/>
<path fill="#FFFFFF" opacity="1.000000" stroke="none" 
	d="
M120.849792,9.006406 
	C120.905388,6.634292 120.960983,4.262178 121.008293,1.445032 
	C121.000000,1.000000 121.500000,1.000000 121.759041,1.468584 
	C122.067421,17.959444 122.116753,33.981720 122.091736,50.467178 
	C122.015274,60.144352 121.925011,69.360023 122.100143,78.570641 
	C122.128441,80.058594 123.337013,81.524109 124.000000,83.000000 
	C124.000000,84.388893 124.000000,85.777779 123.619415,87.723312 
	C122.822563,90.318886 122.054512,92.356148 122.044830,94.397011 
	C121.955284,113.264320 121.996666,132.132248 122.000000,151.000000 
	C122.000000,151.000000 121.500000,151.000000 121.250000,151.000000 
	C120.994179,138.976654 120.988358,126.953316 120.985077,114.003021 
	C120.939751,101.386490 120.891884,89.696899 120.920174,77.543594 
	C120.947250,69.719749 120.898163,62.359638 120.921204,54.535820 
	C120.945480,39.050209 120.897636,24.028309 120.849792,9.006406 
z"/>
<path fill="#403F25" opacity="1.000000" stroke="none" 
	d="
M122.500000,151.000000 
	C121.996666,132.132248 121.955284,113.264320 122.044830,94.397011 
	C122.054512,92.356148 122.822563,90.318886 123.619415,88.139969 
	C124.000000,107.833336 124.016899,127.666718 123.957253,147.499878 
	C123.953735,148.667542 123.333336,149.833328 122.500000,151.000000 
z"/>
<path fill="#252813" opacity="1.000000" stroke="none" 
	d="
M122.166092,50.003990 
	C122.116753,33.981720 122.067421,17.959444 122.009041,1.468584 
	C125.024582,0.390606 123.963776,2.686029 123.967979,3.956807 
	C124.017746,18.991970 124.000000,34.027355 123.694351,49.531624 
	C122.981163,50.001705 122.573624,50.002850 122.166092,50.003990 
z"/>
<path fill="#1E2013" opacity="1.000000" stroke="none" 
	d="
M122.091736,50.467178 
	C122.573624,50.002850 122.981163,50.001705 123.694351,50.000282 
	C124.000000,60.687561 124.000000,71.375122 124.000000,82.531342 
	C123.337013,81.524109 122.128441,80.058594 122.100143,78.570641 
	C121.925011,69.360023 122.015274,60.144352 122.091736,50.467178 
z"/>
<path fill="#FCF8FA" opacity="1.000000" stroke="none" 
	d="
M9.507570,109.471176 
	C9.496511,95.649506 9.516932,82.294632 9.506960,68.472969 
	C9.497291,52.319099 9.518014,36.632011 9.502413,20.478809 
	C10.988265,19.236456 12.510440,18.460217 14.820322,17.754581 
	C17.574381,17.394257 19.540731,16.963327 21.507084,16.532398 
	C23.694813,16.313278 25.882540,16.094158 28.754105,15.842065 
	C29.950895,15.490291 30.463852,15.171490 30.976809,14.852690 
	C33.691925,14.167775 36.407040,13.482861 39.784283,12.744600 
	C41.084808,12.232779 41.723206,11.774302 42.361603,11.315825 
	C42.995075,11.247901 43.628548,11.179977 44.737473,11.478956 
	C45.610779,17.943264 46.008629,24.040668 46.406479,30.138075 
	C45.881283,31.199574 45.356087,32.261074 44.587250,33.698685 
	C42.914986,34.236179 41.486370,34.397564 39.925781,34.573856 
	C39.617786,35.838490 39.313774,37.086761 38.677155,38.130219 
	C37.589432,38.023594 36.834312,38.121784 35.799313,38.374794 
	C34.781357,39.387676 34.043285,40.245739 33.032303,41.300919 
	C31.348305,43.477909 29.937216,45.457775 28.227619,47.607731 
	C26.477182,51.233341 25.025251,54.688866 23.440666,58.511757 
	C23.094879,60.163715 22.881752,61.448296 22.419546,62.772942 
	C22.072897,63.544403 21.975327,64.275803 21.808697,65.352829 
	C21.856934,66.142799 21.974226,66.587151 22.010796,67.492455 
	C21.715643,76.168800 21.501217,84.384186 21.036869,92.854019 
	C20.460062,95.842018 20.133177,98.575569 19.718536,101.684364 
	C19.121717,104.045349 18.612654,106.031090 17.821842,108.249268 
	C16.598280,112.485336 15.150002,116.447571 14.818603,120.501106 
	C14.097687,129.319061 17.886986,132.935410 27.203884,132.852600 
	C29.196314,132.411133 30.814753,131.864059 32.433189,131.316986 
	C32.275826,130.802521 32.118458,130.288055 31.961094,129.773590 
	C30.312365,130.147324 28.663633,130.521072 26.664089,130.830811 
	C20.496908,129.190750 17.662706,126.576653 19.253633,117.762283 
	C20.095865,113.095978 21.670555,108.561882 23.042648,103.723473 
	C23.207523,103.114967 23.244324,102.751076 23.553410,102.191330 
	C24.128714,100.969795 24.431734,99.944122 24.867477,98.575668 
	C25.601402,96.143181 26.202602,94.053497 27.045877,91.798637 
	C27.600185,90.409096 27.912416,89.184731 28.324364,87.732338 
	C28.514540,87.177299 28.523445,86.848076 28.719484,86.269455 
	C29.404724,82.332039 29.821280,78.641838 30.302628,74.635399 
	C30.324688,73.893074 30.281954,73.466980 30.451073,72.688499 
	C30.951120,65.845665 31.239313,59.355221 31.651188,52.566177 
	C31.826227,51.840805 31.877586,51.414028 32.218452,50.806969 
	C33.345505,48.753880 34.183048,46.881069 35.178040,44.718620 
	C36.528324,42.894783 37.721165,41.360592 39.211056,39.669384 
	C41.740574,38.226803 43.973045,36.941238 46.205513,35.655674 
	C46.205513,35.655674 46.168159,35.805687 46.105919,36.282887 
	C46.000771,71.246674 45.971989,105.733299 45.887074,140.219788 
	C45.880554,142.865891 45.477901,145.511017 45.259377,148.156601 
	C33.670818,148.156601 22.082260,148.156601 9.539050,148.156601 
	C9.539050,135.292740 9.539050,122.615349 9.507570,109.471176 
z"/>
<path fill="#8B052E" opacity="1.000000" stroke="none" 
	d="
M91.267227,118.890717 
	C90.618668,117.627754 89.970100,116.364784 88.751617,113.992020 
	C85.944290,113.992020 81.725128,113.992020 76.918182,113.590195 
	C76.283417,111.113464 76.236443,109.038559 76.283157,106.635574 
	C76.585564,105.205414 76.794266,104.103333 77.285233,102.980423 
	C77.662857,102.298622 77.758224,101.637642 77.868179,100.620911 
	C77.802788,99.805420 77.722809,99.345665 77.777969,98.501602 
	C79.145309,93.068863 80.377518,88.020439 82.106293,82.980026 
	C91.044792,83.157661 99.893028,81.348274 107.133781,88.290054 
	C107.508293,89.388580 107.753639,90.194870 107.999496,91.000580 
	C108.000000,91.000000 108.001083,90.998848 107.592384,91.000275 
	C105.826843,91.873650 103.286530,92.770248 103.304092,93.613571 
	C103.423401,99.341270 99.567902,105.747177 105.634941,110.054192 
	C104.263054,112.187843 103.127541,113.953865 101.624374,115.810539 
	C100.503365,115.865479 99.749985,115.829781 98.889473,115.459000 
	C97.449341,115.282753 96.116341,115.441574 94.494789,115.665207 
	C93.226562,116.783577 92.246895,117.837143 91.267227,118.890717 
z"/>
<path fill="#8B022C" opacity="1.000000" stroke="none" 
	d="
M66.987175,120.000587 
	C66.160927,120.000397 65.314598,120.117790 64.511749,119.980621 
	C59.870415,119.187592 56.651787,120.412910 55.748669,125.378342 
	C55.479588,109.737221 55.620560,94.392082 56.176403,79.035309 
	C58.235432,79.015480 59.880238,78.973610 61.523628,79.005219 
	C67.045280,79.111465 73.497726,77.045212 75.690842,85.319061 
	C75.341454,86.614998 75.001205,87.595528 74.391800,88.732826 
	C73.849998,89.626900 73.577354,90.364204 73.142197,91.370659 
	C72.638016,92.402481 72.296364,93.165161 71.597916,93.977898 
	C70.871185,95.044792 70.501259,96.061615 70.088066,97.080673 
	C70.044807,97.082909 70.102600,97.147446 69.779671,97.276825 
	C68.684746,99.287346 67.912758,101.168503 67.149780,103.494118 
	C67.328262,108.737030 67.497726,113.535469 67.462280,118.736343 
	C67.167297,119.426041 67.077240,119.713318 66.987175,120.000587 
z"/>
<path fill="#EAD1D9" opacity="1.000000" stroke="none" 
	d="
M55.761532,79.046944 
	C55.620560,94.392082 55.479588,109.737221 55.433784,125.541580 
	C55.436508,132.129639 55.438339,138.262527 55.175209,144.384018 
	C55.119984,145.668869 54.288696,147.099518 53.384651,148.056366 
	C53.123535,148.332733 51.362396,147.191833 50.201626,145.901062 
	C50.131474,115.213837 50.156155,85.326248 50.150063,55.438667 
	C50.149624,53.294125 49.924259,51.149635 49.803474,49.005119 
	C50.070827,43.892471 50.338177,38.779827 51.200302,33.302101 
	C52.880871,32.929256 53.966663,32.921490 55.096268,33.384850 
	C55.340473,38.564667 55.540867,43.273354 55.566036,48.422142 
	C55.514385,58.923809 55.637959,68.985374 55.761532,79.046944 
z"/>
<path fill="#8B052E" opacity="1.000000" stroke="none" 
	d="
M120.844009,78.007317 
	C120.891884,89.696899 120.939751,101.386490 120.912201,113.539597 
	C116.883102,114.003670 112.929428,114.004204 108.507713,113.540344 
	C108.026810,105.716911 108.013947,98.357880 108.001083,90.998848 
	C108.001083,90.998848 108.000000,91.000000 108.387192,90.998543 
	C114.433228,89.867416 116.082970,86.890396 113.690994,81.656708 
	C113.539543,81.009621 113.500465,80.627945 113.825218,80.092987 
	C116.407372,79.295570 118.625687,78.651443 120.844009,78.007317 
z"/>
<path fill="#F8EFF2" opacity="1.000000" stroke="none" 
	d="
M71.954712,93.927834 
	C72.296364,93.165161 72.638016,92.402481 73.465912,91.283096 
	C74.188416,90.142944 74.424690,89.359505 74.660957,88.576065 
	C75.001205,87.595528 75.341454,86.614998 75.923233,85.051086 
	C76.364540,84.040108 76.564308,83.612518 77.023895,83.075447 
	C77.834251,81.982635 78.384796,80.999298 79.211411,80.011429 
	C80.039429,80.001869 80.591377,79.996849 81.281754,80.347374 
	C81.483360,81.459282 81.546539,82.215645 81.609726,82.972008 
	C80.377518,88.020439 79.145309,93.068863 77.520996,98.525925 
	C77.019730,99.608398 76.910583,100.282227 76.794525,101.303185 
	C76.859413,102.100624 76.931190,102.550934 77.002975,103.001251 
	C76.794266,104.103333 76.585564,105.205414 75.999908,106.877304 
	C74.774040,110.680893 72.685043,113.971901 76.159935,117.313408 
	C76.312531,118.247513 76.369431,118.878807 76.321747,119.843018 
	C76.750587,120.806000 77.284012,121.436066 77.817429,122.066139 
	C78.849464,123.085739 79.881500,124.105339 80.966164,125.696503 
	C80.969124,126.697937 80.919449,127.127815 80.869766,127.557693 
	C80.184219,127.567322 79.498672,127.576942 78.364037,127.180130 
	C76.218704,125.887077 74.522453,125.000450 72.826210,124.113831 
	C71.766808,123.167068 70.707397,122.220306 69.390289,120.788177 
	C68.644112,119.646507 68.155655,118.990211 67.667191,118.333916 
	C67.497726,113.535469 67.328262,108.737030 67.480728,103.383675 
	C68.569305,100.934990 69.335953,99.041222 70.102600,97.147446 
	C70.102600,97.147446 70.044807,97.082909 70.427032,97.009224 
	C71.191086,95.932968 71.572899,94.930405 71.954712,93.927834 
z"/>
<path fill="#B45774" opacity="1.000000" stroke="none" 
	d="
M45.583977,148.182648 
	C45.477901,145.511017 45.880554,142.865891 45.887074,140.219788 
	C45.971989,105.733299 46.000771,71.246674 46.182014,36.296440 
	C46.839306,39.914906 47.358257,43.997025 47.881699,49.008102 
	C47.889210,81.944038 47.892231,113.951004 47.895256,145.957977 
	C47.233032,146.708221 46.570808,147.458466 45.583977,148.182648 
z"/>
<path fill="#940F38" opacity="1.000000" stroke="none" 
	d="
M48.222805,145.978058 
	C47.892231,113.951004 47.889210,81.944038 47.908249,49.468979 
	C48.346867,49.002388 48.763416,49.003883 49.491722,49.005249 
	C49.924259,51.149635 50.149624,53.294125 50.150063,55.438667 
	C50.156155,85.326248 50.131474,115.213837 49.986904,145.556152 
	C49.423126,146.006622 48.986744,146.002380 48.222805,145.978058 
z"/>
<path fill="#930A34" opacity="1.000000" stroke="none" 
	d="
M107.592384,91.000275 
	C108.013947,98.357880 108.026810,105.716911 108.050049,113.543655 
	C106.631973,115.344078 105.203514,116.676781 103.572021,117.724014 
	C103.569717,116.786247 103.770447,116.133942 103.971176,115.481636 
	C103.311462,115.561050 102.651749,115.640472 101.992020,115.719894 
	C103.127541,113.953865 104.263054,112.187843 105.634941,110.054192 
	C99.567902,105.747177 103.423401,99.341270 103.304092,93.613571 
	C103.286530,92.770248 105.826843,91.873650 107.592384,91.000275 
z"/>
<path fill="#ECD5DC" opacity="1.000000" stroke="none" 
	d="
M101.624382,115.810539 
	C102.651749,115.640472 103.311462,115.561050 103.971176,115.481636 
	C103.770447,116.133942 103.569717,116.786247 103.221199,117.730576 
	C102.890289,118.058777 102.707161,118.094955 101.970039,118.200264 
	C100.951775,118.534012 100.487495,118.798630 100.023216,119.063248 
	C97.390320,119.050674 94.757431,119.038101 91.695877,118.958115 
	C92.246895,117.837143 93.226562,116.783577 94.816956,115.819542 
	C96.617325,115.870743 97.806969,115.832405 98.996613,115.794075 
	C99.749985,115.829781 100.503365,115.865479 101.624382,115.810539 
z"/>
<path fill="#DDB0BE" opacity="1.000000" stroke="none" 
	d="
M76.064240,117.010597 
	C72.685043,113.971901 74.774040,110.680893 75.906212,107.205383 
	C76.236443,109.038559 76.283417,111.113464 76.423981,113.586411 
	C76.535378,114.735085 76.553177,115.485718 76.515335,116.635841 
	C76.459686,117.035339 76.064240,117.010597 76.064240,117.010597 
z"/>
<path fill="#DDB0BE" opacity="1.000000" stroke="none" 
	d="
M72.911919,124.438881 
	C74.522453,125.000450 76.218704,125.887077 78.039009,127.061005 
	C76.441254,126.486847 74.719437,125.625389 72.911919,124.438881 
z"/>
<path fill="#8B052E" opacity="1.000000" stroke="none" 
	d="
M76.159935,117.313408 
	C76.064240,117.010597 76.459686,117.035339 76.652473,116.989868 
	C77.269165,117.899406 77.693062,118.854416 77.630661,119.897186 
	C76.975830,119.719643 76.736481,119.561363 76.426331,119.510101 
	C76.369431,118.878807 76.312531,118.247513 76.159935,117.313408 
z"/>
<path fill="#8B052E" opacity="1.000000" stroke="none" 
	d="
M100.185982,119.254417 
	C100.487495,118.798630 100.951775,118.534012 101.712051,118.309082 
	C101.454941,118.714371 100.901848,119.079971 100.185982,119.254417 
z"/>
<path fill="#DDB0BE" opacity="1.000000" stroke="none" 
	d="
M81.149307,127.643738 
	C80.919449,127.127815 80.969124,126.697937 81.134369,125.962982 
	C81.309570,126.348534 81.369209,127.039162 81.149307,127.643738 
z"/>
<path fill="#9F2F52" opacity="1.000000" stroke="none" 
	d="
M67.462280,118.736343 
	C68.155655,118.990211 68.644112,119.646507 69.139725,120.612183 
	C68.566826,120.766998 67.986778,120.612434 67.196953,120.229233 
	C67.077240,119.713318 67.167297,119.426041 67.462280,118.736343 
z"/>
<path fill="#DDB0BE" opacity="1.000000" stroke="none" 
	d="
M76.321747,119.843018 
	C76.736481,119.561363 76.975830,119.719643 77.336853,120.090157 
	C77.651222,120.606270 77.773117,121.017166 77.856224,121.747101 
	C77.284012,121.436066 76.750587,120.806000 76.321747,119.843018 
z"/>
<path fill="#990634" opacity="1.000000" stroke="none" 
	d="
M55.741261,47.982037 
	C55.540867,43.273354 55.340473,38.564667 55.138226,33.052608 
	C55.152122,30.844654 55.167873,29.440075 55.178452,27.565147 
	C55.291615,21.064632 55.409954,15.034468 55.528290,9.004303 
	C76.996109,9.002547 98.463928,9.000793 120.390770,9.002722 
	C120.897636,24.028309 120.945480,39.050209 120.462883,54.536148 
	C115.494255,55.001324 111.029556,54.725574 106.631615,55.146854 
	C104.990181,55.304085 103.504593,57.088306 101.631165,57.970303 
	C100.883369,56.534214 100.452347,55.258488 100.037445,53.627640 
	C98.524658,51.006741 96.995758,48.740963 95.402733,46.133018 
	C93.359383,42.747780 91.380165,39.704704 89.400940,36.661633 
	C88.945953,36.785816 88.490974,36.909996 88.035988,37.034180 
	C87.646301,38.359428 87.256615,39.684681 86.444710,41.009377 
	C82.845428,40.669868 80.548683,41.232605 80.898041,45.292122 
	C80.977020,46.209942 80.020592,47.216862 79.339966,48.080341 
	C78.956390,47.714687 78.707191,47.555115 78.443970,47.102310 
	C78.472229,44.309151 78.448090,41.912884 78.696266,39.362591 
	C79.233551,38.446609 79.498520,37.684654 79.987984,36.735588 
	C80.828728,36.075867 81.444969,35.603252 82.419357,35.195324 
	C83.728325,35.015770 84.679153,34.771530 85.629982,34.527290 
	C85.661186,34.208523 85.692390,33.889755 85.723595,33.570984 
	C84.467155,33.089520 83.210716,32.608055 81.551132,31.977821 
	C78.955719,32.048130 76.763474,32.267204 74.301262,32.653500 
	C73.865646,33.591747 73.699982,34.362778 73.408997,35.530357 
	C73.383179,37.572300 73.482697,39.217690 73.435303,41.222588 
	C73.704681,43.235416 74.120972,44.888737 74.493683,46.783669 
	C74.461914,47.352348 74.472031,47.679470 74.044762,48.006966 
	C67.653152,47.998867 61.697205,47.990452 55.741261,47.982037 
z"/>
<path fill="#F3DFE5" opacity="1.000000" stroke="none" 
	d="
M55.382126,8.594736 
	C55.409954,15.034468 55.291615,21.064632 54.868874,27.687004 
	C53.399239,28.816961 52.234009,29.354708 51.068779,29.892452 
	C51.068779,29.892452 51.038467,29.994623 50.964806,29.499287 
	C50.681122,21.286743 50.471100,13.569536 50.261078,5.852328 
	C53.745403,2.735845 54.763847,4.877966 55.382126,8.594736 
z"/>
<path fill="#AF4465" opacity="1.000000" stroke="none" 
	d="
M49.959206,6.070152 
	C50.471100,13.569536 50.681122,21.286743 50.997574,29.457260 
	C50.445641,29.309736 49.212898,28.705616 49.216312,28.108566 
	C49.257908,20.834433 49.481194,13.561338 49.959206,6.070152 
z"/>
<path fill="#BB5474" opacity="1.000000" stroke="none" 
	d="
M46.747162,29.965260 
	C46.008629,24.040668 45.610779,17.943264 45.055614,11.459354 
	C45.830688,12.053691 47.549278,13.022906 47.563988,14.017321 
	C47.641705,19.272198 47.290382,24.533422 46.747162,29.965260 
z"/>
<path fill="#B45774" opacity="1.000000" stroke="none" 
	d="
M39.009762,38.335033 
	C39.313774,37.086761 39.617786,35.838490 39.925781,34.573856 
	C41.486370,34.397564 42.914986,34.236179 44.709656,34.045929 
	C45.458866,34.375595 45.842026,34.734131 46.215351,35.374168 
	C43.973045,36.941238 41.740574,38.226803 39.160278,39.418972 
	C38.878220,38.995396 38.943989,38.665215 39.009762,38.335033 
z"/>
<path fill="#AF4465" opacity="1.000000" stroke="none" 
	d="
M51.130470,30.150471 
	C52.234009,29.354708 53.399239,28.816961 54.874046,28.157354 
	C55.167873,29.440075 55.152122,30.844654 55.094414,32.581474 
	C53.966663,32.921490 52.880871,32.929256 51.387077,32.928513 
	C51.050106,32.082829 51.121136,31.245657 51.130470,30.150471 
z"/>
<path fill="#BB5474" opacity="1.000000" stroke="none" 
	d="
M21.106234,16.365463 
	C19.540731,16.963327 17.574381,17.394257 15.226910,17.682158 
	C16.798988,17.092262 18.752186,16.645395 21.106234,16.365463 
z"/>
<path fill="#BB5474" opacity="1.000000" stroke="none" 
	d="
M42.051311,11.213648 
	C41.723206,11.774302 41.084808,12.232779 40.144913,12.613192 
	C40.475948,12.060576 41.108486,11.586022 42.051311,11.213648 
z"/>
<path fill="#BB5474" opacity="1.000000" stroke="none" 
	d="
M30.821684,14.649668 
	C30.463852,15.171490 29.950895,15.490291 29.143059,15.688431 
	C29.454308,15.194063 30.060432,14.820354 30.821684,14.649668 
z"/>
<path fill="#930A34" opacity="1.000000" stroke="none" 
	d="
M101.947945,58.130661 
	C103.504593,57.088306 104.990181,55.304085 106.631615,55.146854 
	C111.029556,54.725574 115.494255,55.001324 120.390762,54.999855 
	C120.898163,62.359638 120.947250,69.719749 120.920174,77.543594 
	C118.625687,78.651443 116.407372,79.295570 113.484390,80.073128 
	C110.892258,77.419899 109.004784,74.633247 107.025887,71.513763 
	C103.629349,67.458618 101.155952,63.418495 101.947945,58.130661 
z"/>
<path fill="#930733" opacity="1.000000" stroke="none" 
	d="
M38.677155,38.130219 
	C38.943989,38.665215 38.878220,38.995396 38.863228,39.575989 
	C37.721165,41.360592 36.528324,42.894783 34.850716,44.784794 
	C33.553612,47.089493 32.741276,49.038372 31.928944,50.987251 
	C31.877586,51.414028 31.826227,51.840805 31.314489,52.699402 
	C30.649145,59.767780 30.444181,66.404335 30.239218,73.040886 
	C30.281954,73.466980 30.324688,73.893074 30.018377,74.917961 
	C29.263153,79.183388 28.856976,82.850021 28.450798,86.516655 
	C28.523445,86.848076 28.514540,87.177299 28.032066,87.876152 
	C27.361305,89.486595 27.082556,90.725197 26.803804,91.963806 
	C26.202602,94.053497 25.601402,96.143181 24.527557,98.685196 
	C23.796984,100.220741 23.539053,101.303963 23.281122,102.387192 
	C23.244324,102.751076 23.207523,103.114967 22.715599,103.787170 
	C19.934700,104.405983 22.341040,109.732834 18.103588,108.016838 
	C18.612654,106.031090 19.121717,104.045349 19.955387,101.435852 
	C20.615593,98.074593 20.951191,95.337082 21.286789,92.599579 
	C21.501217,84.384186 21.715643,76.168800 22.280750,67.473007 
	C22.736841,66.328827 22.842251,65.665047 22.992249,64.612137 
	C22.914103,63.726299 22.791363,63.229588 22.668625,62.732880 
	C22.881752,61.448296 23.094879,60.163715 23.743805,58.387581 
	C25.628443,54.409897 27.077286,50.923771 28.526129,47.437641 
	C29.937216,45.457775 31.348305,43.477909 33.339012,41.259781 
	C34.638813,40.087673 35.359005,39.153824 36.079197,38.219975 
	C36.834312,38.121784 37.589432,38.023594 38.677155,38.130219 
z"/>
<path fill="#A84463" opacity="1.000000" stroke="none" 
	d="
M17.821844,108.249268 
	C22.341040,109.732834 19.934700,104.405983 22.587524,104.031784 
	C21.670555,108.561882 20.095865,113.095978 19.253633,117.762283 
	C17.662706,126.576653 20.496908,129.190750 26.614475,131.137848 
	C26.887079,131.921585 26.858486,132.334274 26.829891,132.746979 
	C17.886986,132.935410 14.097687,129.319061 14.818603,120.501106 
	C15.150002,116.447571 16.598280,112.485336 17.821844,108.249268 
z"/>
<path fill="#AF4566" opacity="1.000000" stroke="none" 
	d="
M30.451073,72.688499 
	C30.444181,66.404335 30.649145,59.767780 31.190807,52.998001 
	C31.239313,59.355221 30.951120,65.845665 30.451073,72.688499 
z"/>
<path fill="#AF4566" opacity="1.000000" stroke="none" 
	d="
M28.719484,86.269455 
	C28.856976,82.850021 29.263153,79.183388 29.953583,75.234192 
	C29.821280,78.641838 29.404724,82.332039 28.719484,86.269455 
z"/>
<path fill="#AF4264" opacity="1.000000" stroke="none" 
	d="
M28.227623,47.607731 
	C27.077286,50.923771 25.628443,54.409897 23.876461,58.020206 
	C25.025251,54.688866 26.477182,51.233341 28.227623,47.607731 
z"/>
<path fill="#C0738B" opacity="1.000000" stroke="none" 
	d="
M21.036869,92.854019 
	C20.951191,95.337082 20.615593,98.074593 20.043142,101.060608 
	C20.133177,98.575569 20.460062,95.842018 21.036869,92.854019 
z"/>
<path fill="#CE97A8" opacity="1.000000" stroke="none" 
	d="
M27.203884,132.852600 
	C26.858486,132.334274 26.887079,131.921585 26.965288,131.201843 
	C28.663633,130.521072 30.312365,130.147324 31.961094,129.773590 
	C32.118458,130.288055 32.275826,130.802521 32.433189,131.316986 
	C30.814753,131.864059 29.196314,132.411133 27.203884,132.852600 
z"/>
<path fill="#AF4566" opacity="1.000000" stroke="none" 
	d="
M32.218452,50.806969 
	C32.741276,49.038372 33.553612,47.089493 34.693268,45.074440 
	C34.183048,46.881069 33.345505,48.753880 32.218452,50.806969 
z"/>
<path fill="#AF4566" opacity="1.000000" stroke="none" 
	d="
M27.045879,91.798637 
	C27.082556,90.725197 27.361305,89.486595 27.932352,88.104172 
	C27.912416,89.184731 27.600185,90.409096 27.045879,91.798637 
z"/>
<path fill="#AF4264" opacity="1.000000" stroke="none" 
	d="
M35.799313,38.374794 
	C35.359005,39.153824 34.638813,40.087673 33.611919,41.062660 
	C34.043285,40.245739 34.781357,39.387676 35.799313,38.374794 
z"/>
<path fill="#A84463" opacity="1.000000" stroke="none" 
	d="
M23.553410,102.191330 
	C23.539053,101.303963 23.796984,100.220741 24.394835,99.027985 
	C24.431734,99.944122 24.128714,100.969795 23.553410,102.191330 
z"/>
<path fill="#AF4264" opacity="1.000000" stroke="none" 
	d="
M22.947659,65.001259 
	C22.842251,65.665047 22.736841,66.328827 22.361477,67.012054 
	C21.974226,66.587151 21.856934,66.142799 22.076199,65.353683 
	C22.591057,65.006355 22.769360,65.003807 22.947659,65.001259 
z"/>
<path fill="#C0738B" opacity="1.000000" stroke="none" 
	d="
M22.992250,64.612137 
	C22.769360,65.003807 22.591057,65.006355 22.145254,65.008057 
	C21.975327,64.275803 22.072897,63.544403 22.419546,62.772942 
	C22.791363,63.229588 22.914103,63.726299 22.992250,64.612137 
z"/>
<path fill="#930430" opacity="1.000000" stroke="none" 
	d="
M79.540771,48.182770 
	C80.020592,47.216862 80.977020,46.209942 80.898041,45.292122 
	C80.548683,41.232605 82.845428,40.669868 86.705002,41.225624 
	C89.521782,43.678062 91.656052,45.913700 93.886658,48.487144 
	C95.486946,51.370739 96.990906,53.916531 98.524117,56.819145 
	C98.183746,58.500580 97.681000,59.805462 97.480934,61.155209 
	C97.269432,62.582020 96.730957,64.516975 97.411133,65.416168 
	C99.548088,68.241165 102.190750,70.683609 104.725288,73.617020 
	C106.940079,76.447380 109.067162,78.934914 111.235321,81.775604 
	C111.659836,83.450081 112.043282,84.771393 112.420914,86.072685 
	C110.279587,86.833778 108.642105,87.415794 107.004616,87.997803 
	C99.893028,81.348274 91.044792,83.157661 82.106293,82.980026 
	C81.546539,82.215645 81.483360,81.459282 81.449875,79.994072 
	C81.626579,78.523071 81.773582,77.760918 82.258667,76.928871 
	C84.607452,75.279236 84.578583,73.973267 81.891701,72.595062 
	C81.533440,70.152550 81.362106,68.113953 81.309753,65.763733 
	C81.357620,65.016235 81.286499,64.580353 81.377350,63.820450 
	C81.095886,62.229622 80.652443,60.962814 80.149643,59.286144 
	C79.897896,56.957672 79.705521,55.039070 79.635254,52.723106 
	C79.685165,50.944752 79.612968,49.563763 79.540771,48.182770 
z"/>
<path fill="#930A34" opacity="1.000000" stroke="none" 
	d="
M107.133781,88.290054 
	C108.642105,87.415794 110.279587,86.833778 112.420914,86.072685 
	C112.043282,84.771393 111.659836,83.450081 111.570900,81.796631 
	C112.511391,81.617035 113.157387,81.769569 113.803375,81.922112 
	C116.082970,86.890396 114.433228,89.867416 108.386688,90.999115 
	C107.753639,90.194870 107.508293,89.388580 107.133781,88.290054 
z"/>
<path fill="#87032C" opacity="1.000000" stroke="none" 
	d="
M98.889473,115.459000 
	C97.806969,115.832405 96.617325,115.870743 95.105515,115.754745 
	C96.116341,115.441574 97.449341,115.282753 98.889473,115.459000 
z"/>
<path fill="#A6395B" opacity="1.000000" stroke="none" 
	d="
M77.285233,102.980423 
	C76.931190,102.550934 76.859413,102.100624 77.057602,101.307739 
	C77.502922,100.969009 77.678261,100.972839 77.853592,100.976662 
	C77.758224,101.637642 77.662857,102.298622 77.285233,102.980423 
z"/>
<path fill="#DDB0BE" opacity="1.000000" stroke="none" 
	d="
M77.868179,100.620911 
	C77.678261,100.972839 77.502922,100.969009 77.064507,100.960617 
	C76.910583,100.282227 77.019730,99.608398 77.385857,98.910240 
	C77.722809,99.345665 77.802788,99.805420 77.868179,100.620911 
z"/>
<path fill="#930632" opacity="1.000000" stroke="none" 
	d="
M55.566036,48.422142 
	C61.697205,47.990452 67.653152,47.998867 74.088768,48.381538 
	C74.686356,49.499226 74.804260,50.242661 74.790405,51.280899 
	C74.852562,53.337132 75.046486,55.098560 75.007248,57.030708 
	C75.157776,57.800617 75.541473,58.399803 76.085251,59.363533 
	C76.431892,60.769684 76.618462,61.811291 76.650574,63.231049 
	C77.046440,66.397919 77.596748,69.186638 78.131577,72.407349 
	C78.140442,74.567329 78.164787,76.295319 77.962952,78.283485 
	C77.412544,80.090744 77.088310,81.637833 76.764076,83.184921 
	C76.564308,83.612518 76.364540,84.040108 75.932373,84.735687 
	C73.497726,77.045212 67.045280,79.111465 61.523628,79.005219 
	C59.880238,78.973610 58.235432,79.015480 56.176403,79.035309 
	C55.637959,68.985374 55.514385,58.923809 55.566036,48.422142 
z"/>
<path fill="#DDB0BE" opacity="1.000000" stroke="none" 
	d="
M69.779671,97.276825 
	C69.335953,99.041222 68.569305,100.934990 67.471710,102.939209 
	C67.912758,101.168503 68.684746,99.287346 69.779671,97.276825 
z"/>
<path fill="#DDB0BE" opacity="1.000000" stroke="none" 
	d="
M71.597916,93.977898 
	C71.572899,94.930405 71.191086,95.932968 70.470291,97.006989 
	C70.501259,96.061615 70.871185,95.044792 71.597916,93.977898 
z"/>
<path fill="#DDB0BE" opacity="1.000000" stroke="none" 
	d="
M74.391800,88.732826 
	C74.424690,89.359505 74.188416,90.142944 73.628426,91.013947 
	C73.577354,90.364204 73.849998,89.626900 74.391800,88.732826 
z"/>
<path fill="#D8A6B6" opacity="1.000000" stroke="none" 
	d="
M113.690994,81.656708 
	C113.157387,81.769569 112.511391,81.617035 111.529823,81.443466 
	C109.067162,78.934914 106.940079,76.447380 105.083221,73.522141 
	C105.941399,72.671822 106.529358,72.259201 107.117310,71.846588 
	C109.004784,74.633247 110.892258,77.419899 113.120560,80.226410 
	C113.500465,80.627945 113.539543,81.009621 113.690994,81.656708 
z"/>
<path fill="#FEFDFE" opacity="1.000000" stroke="none" 
	d="
M78.189125,78.023315 
	C78.164787,76.295319 78.140442,74.567329 78.360489,72.156921 
	C78.706985,70.346962 78.809082,69.219414 78.969376,67.804306 
	C79.748642,67.036293 80.469704,66.555824 81.190773,66.075356 
	C81.362106,68.113953 81.533440,70.152550 81.793030,72.987076 
	C81.894394,74.854927 81.907494,75.926842 81.920593,76.998764 
	C81.773582,77.760918 81.626579,78.523071 81.311447,79.638527 
	C80.591377,79.996849 80.039429,80.001869 79.189850,79.731728 
	C78.657845,78.978813 78.423485,78.501068 78.189125,78.023315 
z"/>
<path fill="#DDB0BE" opacity="1.000000" stroke="none" 
	d="
M77.962952,78.283485 
	C78.423485,78.501068 78.657845,78.978813 78.913773,79.736267 
	C78.384796,80.999298 77.834251,81.982635 77.023895,83.075447 
	C77.088310,81.637833 77.412544,80.090744 77.962952,78.283485 
z"/>
<path fill="#F5E6EB" opacity="1.000000" stroke="none" 
	d="
M81.309753,65.763733 
	C80.469704,66.555824 79.748642,67.036293 78.771172,67.537361 
	C77.944855,65.989609 77.374939,64.421257 76.805023,62.852901 
	C76.618462,61.811291 76.431892,60.769684 76.166275,59.033272 
	C76.111465,57.886345 76.135712,57.434212 76.378891,56.738159 
	C76.039276,54.658188 75.480728,52.822140 74.922173,50.986095 
	C74.804260,50.242661 74.686356,49.499226 74.524437,48.381218 
	C74.472031,47.679470 74.461914,47.352348 74.630325,46.392662 
	C74.401108,44.127731 73.991661,42.495407 73.582214,40.863083 
	C73.482697,39.217690 73.383179,37.572300 73.710571,35.405144 
	C74.282059,34.084343 74.426643,33.285313 74.571220,32.486282 
	C76.763474,32.267204 78.955719,32.048130 81.555862,32.353901 
	C81.996239,33.629379 82.028732,34.380009 82.061218,35.130638 
	C81.444969,35.603252 80.828728,36.075867 79.655136,36.825661 
	C78.873177,37.907433 78.648560,38.712025 78.423950,39.516617 
	C78.448090,41.912884 78.472229,44.309151 78.309845,47.493080 
	C78.586594,49.893986 79.049866,51.507225 79.513138,53.120464 
	C79.705521,55.039070 79.897896,56.957672 80.042847,59.631760 
	C80.402069,61.639652 80.808723,62.892067 81.215378,64.144478 
	C81.286499,64.580353 81.357620,65.016235 81.309753,65.763733 
z"/>
<path fill="#ECD2DA" opacity="1.000000" stroke="none" 
	d="
M107.025887,71.513763 
	C106.529358,72.259201 105.941399,72.671822 104.995514,73.179321 
	C102.190750,70.683609 99.548088,68.241165 97.411133,65.416168 
	C96.730957,64.516975 97.269432,62.582020 97.480934,61.155209 
	C97.681000,59.805462 98.183746,58.500580 98.673409,56.475113 
	C99.202744,55.177094 99.612030,54.579929 100.021324,53.982761 
	C100.452347,55.258488 100.883369,56.534214 101.631165,57.970303 
	C101.155952,63.418495 103.629349,67.458618 107.025887,71.513763 
z"/>
<path fill="#DFB2C0" opacity="1.000000" stroke="none" 
	d="
M93.790321,48.149338 
	C91.656052,45.913700 89.521782,43.678062 87.127213,41.226177 
	C87.256615,39.684681 87.646301,38.359428 88.035988,37.034180 
	C88.490974,36.909996 88.945953,36.785816 89.400940,36.661633 
	C91.380165,39.704704 93.359383,42.747780 95.171173,46.461060 
	C94.599274,47.470619 94.194794,47.809978 93.790321,48.149338 
z"/>
<path fill="#D191A5" opacity="1.000000" stroke="none" 
	d="
M93.886658,48.487141 
	C94.194794,47.809978 94.599274,47.470619 95.235306,46.803223 
	C96.995758,48.740963 98.524658,51.006741 100.037445,53.627640 
	C99.612030,54.579929 99.202744,55.177094 98.644157,56.118294 
	C96.990906,53.916531 95.486946,51.370739 93.886658,48.487141 
z"/>
<path fill="#DDB0BE" opacity="1.000000" stroke="none" 
	d="
M79.635254,52.723106 
	C79.049866,51.507225 78.586594,49.893986 78.257446,47.889973 
	C78.707191,47.555115 78.956390,47.714687 79.339973,48.080345 
	C79.612968,49.563763 79.685165,50.944752 79.635254,52.723106 
z"/>
<path fill="#DDB0BE" opacity="1.000000" stroke="none" 
	d="
M73.435303,41.222588 
	C73.991661,42.495407 74.401108,44.127731 74.673912,46.151054 
	C74.120972,44.888737 73.704681,43.235416 73.435303,41.222588 
z"/>
<path fill="#DDB0BE" opacity="1.000000" stroke="none" 
	d="
M82.419357,35.195324 
	C82.028732,34.380009 81.996239,33.629379 81.959015,32.502670 
	C83.210716,32.608055 84.467155,33.089520 85.723595,33.570984 
	C85.692390,33.889755 85.661186,34.208523 85.629982,34.527290 
	C84.679153,34.771530 83.728325,35.015770 82.419357,35.195324 
z"/>
<path fill="#DDB0BE" opacity="1.000000" stroke="none" 
	d="
M74.301262,32.653496 
	C74.426643,33.285313 74.282059,34.084343 73.835907,35.008591 
	C73.699982,34.362778 73.865646,33.591747 74.301262,32.653496 
z"/>
<path fill="#DDB0BE" opacity="1.000000" stroke="none" 
	d="
M78.696266,39.362591 
	C78.648560,38.712025 78.873177,37.907433 79.430641,37.012772 
	C79.498520,37.684654 79.233551,38.446609 78.696266,39.362591 
z"/>
<path fill="#930A34" opacity="1.000000" stroke="none" 
	d="
M82.258675,76.928871 
	C81.907494,75.926842 81.894394,74.854927 81.979965,73.390991 
	C84.578583,73.973267 84.607452,75.279236 82.258675,76.928871 
z"/>
<path fill="#DDB0BE" opacity="1.000000" stroke="none" 
	d="
M81.377350,63.820450 
	C80.808723,62.892067 80.402069,61.639652 80.102203,60.041626 
	C80.652443,60.962814 81.095886,62.229622 81.377350,63.820450 
z"/>
<path fill="#DDB0BE" opacity="1.000000" stroke="none" 
	d="
M76.650574,63.231049 
	C77.374939,64.421257 77.944855,65.989609 78.712975,67.824905 
	C78.809082,69.219414 78.706985,70.346962 78.375977,71.724945 
	C77.596748,69.186638 77.046440,66.397919 76.650574,63.231049 
z"/>
<path fill="#DDB0BE" opacity="1.000000" stroke="none" 
	d="
M74.790405,51.280899 
	C75.480728,52.822140 76.039276,54.658188 76.148499,56.711487 
	C75.699165,56.928738 75.240410,56.859985 75.240410,56.859985 
	C75.046486,55.098560 74.852562,53.337132 74.790405,51.280899 
z"/>
<path fill="#990634" opacity="1.000000" stroke="none" 
	d="
M75.007248,57.030708 
	C75.240410,56.859985 75.699165,56.928738 75.929565,56.955410 
	C76.135712,57.434212 76.111465,57.886345 76.006187,58.668732 
	C75.541473,58.399803 75.157776,57.800617 75.007248,57.030708 
z"/>
</svg>